<svg width="16" height="17" viewBox="0 0 16 17" fill="none" xmlns="http://www.w3.org/2000/svg">
<path fill-rule="evenodd" clip-rule="evenodd" d="M4.0945 1.38729C5.14374 1.54859 6.20712 1.20301 6.96112 0.455815C7.25985 0.160573 7.58063 0 7.91464 0C8.18416 0 8.44504 0.104538 8.6927 0.300018C8.75498 0.349256 8.81635 0.404189 8.87679 0.464634C9.62969 1.20154 10.6861 1.53996 11.7269 1.37737C12.1465 1.32335 12.5027 1.38178 12.7741 1.57891C13.0443 1.77531 13.2095 2.0937 13.2775 2.50818C13.4484 3.55594 14.1057 4.46059 15.0493 4.94672C15.4224 5.13963 15.6743 5.39519 15.7776 5.71266C15.8807 6.03032 15.8272 6.38508 15.6385 6.76043C15.1608 7.70843 15.161 8.82657 15.6387 9.77458C15.8272 10.1499 15.8807 10.5047 15.7776 10.8223C15.6743 11.1398 15.4224 11.3954 15.0493 11.5883C14.1057 12.0744 13.4484 12.9791 13.2777 14.0268C13.2095 14.4413 13.0443 14.7597 12.7741 14.9561C12.504 15.1523 12.1502 15.2111 11.7348 15.1477C10.6855 14.9864 9.62215 15.332 8.86816 16.0792C8.56942 16.3744 8.24865 16.535 7.91464 16.535C7.58063 16.535 7.25985 16.3744 6.96112 16.079C6.20712 15.3318 5.14374 14.9864 4.0945 15.1477C3.67911 15.2111 3.32526 15.1523 3.05518 14.9561C2.78493 14.7597 2.61976 14.4413 2.55179 14.0268C2.38092 12.9791 1.72357 12.0744 0.779968 11.5883C0.406828 11.3954 0.154945 11.1398 0.0516933 10.8223C-0.0513749 10.5047 0.00208831 10.1499 0.190771 9.77458C0.668449 8.82657 0.668265 7.70843 0.190587 6.76043C0.00208829 6.38508 -0.0513749 6.03032 0.0516933 5.71266C0.154945 5.39519 0.406828 5.13963 0.779968 4.94672C1.72357 4.46059 2.38092 3.55594 2.5516 2.50818C2.61976 2.0937 2.78493 1.77531 3.05518 1.57891C3.32526 1.38269 3.67911 1.3239 4.0945 1.38729ZM9.23375 10.5529C9.20637 10.5802 8.35311 10.2925 8.32573 10.2652C8.07219 10.0116 5.58596 7.31343 5.33242 7.06008C5.30505 7.0327 8.60157 10.5255 8.57419 10.5529C8.37338 10.7537 7.62049 11.5066 7.41968 11.7074C7.39231 11.7347 4.05151 8.28624 4.07889 8.31362C4.43733 8.67206 6.63171 10.8664 6.99015 11.2249C7.01752 11.2523 7.0618 11.2523 7.08917 11.2249C7.56226 10.7518 11.2773 7.03693 11.7504 6.56366C11.7778 6.53629 11.7778 6.49201 11.7504 6.46464C11.5496 6.26383 10.7967 5.51093 10.5959 5.31012C10.5685 5.28275 12.6688 7.11798 12.6414 7.14535C12.2475 7.53907 9.62765 10.1591 9.23375 10.5529Z" fill="white"/>
<path fill-rule="evenodd" clip-rule="evenodd" d="M4.0945 1.38729C5.14374 1.54859 6.20712 1.20301 6.96112 0.455815C7.25985 0.160573 7.58063 0 7.91464 0C8.18416 0 8.44504 0.104538 8.6927 0.300018C8.75498 0.349256 8.81635 0.404189 8.87679 0.464634C9.62969 1.20154 10.6861 1.53996 11.7269 1.37737C12.1465 1.32335 12.5027 1.38178 12.7741 1.57891C13.0443 1.77531 13.2095 2.0937 13.2775 2.50818C13.4484 3.55594 14.1057 4.46059 15.0493 4.94672C15.4224 5.13963 15.6743 5.39519 15.7776 5.71266C15.8807 6.03032 15.8272 6.38508 15.6385 6.76043C15.1608 7.70843 15.161 8.82657 15.6387 9.77458C15.8272 10.1499 15.8807 10.5047 15.7776 10.8223C15.6743 11.1398 15.4224 11.3954 15.0493 11.5883C14.1057 12.0744 13.4484 12.9791 13.2777 14.0268C13.2095 14.4413 13.0443 14.7597 12.7741 14.9561C12.504 15.1523 12.1502 15.2111 11.7348 15.1477C10.6855 14.9864 9.62215 15.332 8.86816 16.0792C8.56942 16.3744 8.24865 16.535 7.91464 16.535C7.58063 16.535 7.25985 16.3744 6.96112 16.079C6.20712 15.3318 5.14374 14.9864 4.0945 15.1477C3.67911 15.2111 3.32526 15.1523 3.05518 14.9561C2.78493 14.7597 2.61976 14.4413 2.55179 14.0268C2.38092 12.9791 1.72357 12.0744 0.779968 11.5883C0.406828 11.3954 0.154945 11.1398 0.0516933 10.8223C-0.0513749 10.5047 0.00208831 10.1499 0.190771 9.77458C0.668449 8.82657 0.668265 7.70843 0.190587 6.76043C0.00208829 6.38508 -0.0513749 6.03032 0.0516933 5.71266C0.154945 5.39519 0.406828 5.13963 0.779968 4.94672C1.72357 4.46059 2.38092 3.55594 2.5516 2.50818C2.61976 2.0937 2.78493 1.77531 3.05518 1.57891C3.32526 1.38269 3.67911 1.3239 4.0945 1.38729ZM7.08917 8.71762C7.0618 8.745 7.01752 8.745 6.99015 8.71762C6.73661 8.46409 5.58596 7.31343 5.33242 7.06008C5.30505 7.0327 5.26077 7.0327 5.2334 7.06008C5.03259 7.26089 4.27969 8.01378 4.07889 8.21459C4.05151 8.24196 4.05151 8.28624 4.07889 8.31362C4.43733 8.67206 6.63171 10.8664 6.99015 11.2249C7.01752 11.2523 7.0618 11.2523 7.08917 11.2249C7.56226 10.7518 11.2773 7.03693 11.7504 6.56366C11.7778 6.53629 11.7778 6.49201 11.7504 6.46464C11.5496 6.26383 10.7967 5.51093 10.5959 5.31012C10.5685 5.28275 10.5242 5.28275 10.4969 5.31012C10.103 5.70384 7.48307 8.3239 7.08917 8.71762Z" fill="#0075FF"/>
</svg>
